<?xml version="1.0" encoding="UTF-8" standalone="no"?>
<svg
   xmlns:dc="http://purl.org/dc/elements/1.1/"
   xmlns:cc="http://creativecommons.org/ns#"
   xmlns:rdf="http://www.w3.org/1999/02/22-rdf-syntax-ns#"
   xmlns:svg="http://www.w3.org/2000/svg"
   xmlns="http://www.w3.org/2000/svg"
   xmlns:sodipodi="http://sodipodi.sourceforge.net/DTD/sodipodi-0.dtd"
   xmlns:inkscape="http://www.inkscape.org/namespaces/inkscape"
   preserveAspectRatio="xMidYMid"
   width="141"
   height="160"
   viewBox="0 0 141 160"
   id="svg2"
   version="1.1"
   inkscape:version="0.48.4 r9939"
   sodipodi:docname="maxwell pattern.svg"
   inkscape:export-filename="/home/surge/www/maxfin/cwd/assets/images/maxwell pattern.png"
   inkscape:export-xdpi="84.379997"
   inkscape:export-ydpi="84.379997">
  <metadata
     id="metadata12">
    <rdf:RDF>
      <cc:Work
         rdf:about="">
        <dc:format>image/svg+xml</dc:format>
        <dc:type
           rdf:resource="http://purl.org/dc/dcmitype/StillImage" />
        <dc:title></dc:title>
      </cc:Work>
    </rdf:RDF>
  </metadata>
  <sodipodi:namedview
     pagecolor="#ffffff"
     bordercolor="#666666"
     borderopacity="1"
     objecttolerance="10"
     gridtolerance="10"
     guidetolerance="10"
     inkscape:pageopacity="0"
     inkscape:pageshadow="2"
     inkscape:window-width="1556"
     inkscape:window-height="749"
     id="namedview10"
     showgrid="false"
     inkscape:zoom="1.475"
     inkscape:cx="70.5"
     inkscape:cy="135.87783"
     inkscape:window-x="143"
     inkscape:window-y="85"
     inkscape:window-maximized="0"
     inkscape:current-layer="svg2" />
  <defs
     id="defs4">
    <style
       id="style6">
      .cls-1 {
        fill: #000;
        fill-rule: evenodd;
      }
    </style>
  </defs>
  <rect
     style="fill:#00435e;fill-opacity:1;stroke:#ffffff;stroke-width:2.22992873;stroke-miterlimit:4;stroke-opacity:1;stroke-dasharray:none"
     id="rect3000"
     width="273.6684"
     height="251.2955"
     x="-66.069794"
     y="-55.055904"
     transform="matrix(0.99999345,0.00361876,-0.00361876,0.99999345,0,0)" />
  <path
     d="M150.105,180.031 L150.105,178.677 L150.819,178.677 C152.298,178.677 153.451,178.389 154.278,177.812 C154.854,177.412 155.268,176.773 155.519,175.895 C155.619,175.469 155.669,174.254 155.669,172.248 L155.669,157.435 C155.669,154.628 155.331,152.647 154.654,151.494 C153.676,149.890 152.110,149.088 149.954,149.088 C148.625,149.088 147.291,149.420 145.950,150.084 C144.609,150.749 142.986,151.983 141.081,153.788 L141.006,154.201 L141.081,155.818 L141.081,172.248 C141.081,174.604 141.213,176.071 141.476,176.647 C141.739,177.224 142.234,177.706 142.961,178.094 C143.688,178.483 144.928,178.677 146.683,178.677 L146.683,180.031 L129.275,180.031 L129.275,178.677 C131.180,178.677 132.490,178.452 133.204,178.000 C133.919,177.549 134.413,176.873 134.690,175.970 C134.815,175.544 134.878,174.304 134.878,172.248 L134.878,157.435 C134.878,154.628 134.464,152.610 133.637,151.381 C132.534,149.778 130.992,148.975 129.012,148.975 C127.659,148.975 126.318,149.339 124.989,150.065 C122.909,151.169 121.305,152.409 120.177,153.788 L120.177,172.248 C120.177,174.504 120.333,175.970 120.647,176.647 C120.960,177.324 121.423,177.831 122.038,178.170 C122.652,178.508 123.899,178.677 125.779,178.677 L125.779,180.031 L108.747,180.031 L108.747,178.677 C110.326,178.677 111.429,178.508 112.056,178.170 C112.682,177.831 113.158,177.293 113.484,176.553 C113.810,175.814 113.973,174.379 113.973,172.248 L113.973,159.089 C113.973,155.304 113.860,152.861 113.635,151.757 C113.459,150.930 113.184,150.360 112.808,150.047 C112.432,149.733 111.918,149.577 111.266,149.577 C110.564,149.577 109.725,149.765 108.747,150.141 L108.183,148.787 L118.560,144.576 L120.177,144.576 L120.177,151.908 C122.683,149.402 124.162,147.960 124.613,147.584 C125.741,146.632 126.957,145.892 128.260,145.366 C129.563,144.839 130.855,144.576 132.133,144.576 C134.288,144.576 136.143,145.203 137.697,146.456 C139.251,147.710 140.292,149.527 140.818,151.908 C143.399,148.900 145.580,146.926 147.360,145.986 C149.139,145.046 150.969,144.576 152.849,144.576 C154.679,144.576 156.302,145.046 157.718,145.986 C159.134,146.926 160.256,148.462 161.083,150.592 C161.634,152.046 161.910,154.327 161.910,157.435 L161.910,172.248 C161.910,174.404 162.073,175.883 162.399,176.685 C162.649,177.236 163.113,177.706 163.790,178.094 C164.467,178.483 165.570,178.677 167.099,178.677 L167.099,180.031 L150.105,180.031 ZM150.105,13.677 L150.819,13.677 C152.298,13.677 153.451,13.389 154.278,12.812 C154.854,12.412 155.268,11.773 155.519,10.895 C155.619,10.469 155.669,9.254 155.669,7.248 L155.669,-7.565 C155.669,-10.372 155.331,-12.353 154.654,-13.506 C153.676,-15.110 152.110,-15.912 149.954,-15.912 C148.625,-15.912 147.291,-15.580 145.950,-14.916 C144.609,-14.251 142.986,-13.017 141.081,-11.212 L141.006,-10.799 L141.081,-9.182 L141.081,7.248 C141.081,9.604 141.213,11.071 141.476,11.647 C141.739,12.224 142.234,12.706 142.961,13.094 C143.688,13.483 144.928,13.677 146.683,13.677 L146.683,15.031 L129.275,15.031 L129.275,13.677 C131.180,13.677 132.490,13.452 133.204,13.000 C133.919,12.549 134.413,11.873 134.690,10.970 C134.815,10.544 134.878,9.304 134.878,7.248 L134.878,-7.565 C134.878,-10.372 134.464,-12.390 133.637,-13.619 C132.534,-15.222 130.992,-16.025 129.012,-16.025 C127.659,-16.025 126.318,-15.661 124.989,-14.935 C122.909,-13.831 121.305,-12.591 120.177,-11.212 L120.177,7.248 C120.177,9.504 120.333,10.970 120.647,11.647 C120.960,12.324 121.423,12.831 122.038,13.170 C122.652,13.508 123.899,13.677 125.779,13.677 L125.779,15.031 L108.747,15.031 L108.747,13.677 C110.326,13.677 111.429,13.508 112.056,13.170 C112.682,12.831 113.158,12.293 113.484,11.553 C113.810,10.814 113.973,9.379 113.973,7.248 L113.973,-5.911 C113.973,-9.696 113.860,-12.139 113.635,-13.243 C113.459,-14.070 113.184,-14.640 112.808,-14.953 C112.432,-15.267 111.918,-15.423 111.266,-15.423 C110.564,-15.423 109.725,-15.235 108.747,-14.859 L108.183,-16.213 L118.560,-20.424 L120.177,-20.424 L120.177,-13.092 C122.683,-15.598 124.162,-17.040 124.613,-17.416 C125.741,-18.368 126.957,-19.108 128.260,-19.634 C129.563,-20.161 130.855,-20.424 132.133,-20.424 C134.288,-20.424 136.143,-19.797 137.697,-18.544 C139.251,-17.290 140.292,-15.473 140.818,-13.092 C143.399,-16.100 145.580,-18.074 147.360,-19.014 C149.139,-19.954 150.969,-20.424 152.849,-20.424 C154.679,-20.424 156.302,-19.954 157.718,-19.014 C159.134,-18.074 160.256,-16.538 161.083,-14.408 C161.634,-12.954 161.910,-10.673 161.910,-7.565 L161.910,7.248 C161.910,9.404 162.073,10.883 162.399,11.685 C162.649,12.236 163.113,12.706 163.790,13.094 C164.467,13.483 165.570,13.677 167.099,13.677 L167.099,15.031 L150.105,15.031 L150.105,13.677 ZM79.105,96.677 L79.819,96.677 C81.298,96.677 82.451,96.389 83.278,95.812 C83.854,95.412 84.268,94.773 84.519,93.895 C84.619,93.469 84.669,92.254 84.669,90.248 L84.669,75.435 C84.669,72.628 84.331,70.647 83.654,69.494 C82.676,67.890 81.110,67.088 78.954,67.088 C77.625,67.088 76.291,67.420 74.950,68.084 C73.609,68.749 71.986,69.983 70.081,71.788 L70.006,72.201 L70.081,73.818 L70.081,90.248 C70.081,92.604 70.213,94.071 70.476,94.647 C70.739,95.224 71.234,95.706 71.961,96.094 C72.688,96.483 73.928,96.677 75.683,96.677 L75.683,98.031 L58.275,98.031 L58.275,96.677 C60.180,96.677 61.490,96.452 62.204,96.000 C62.919,95.549 63.413,94.873 63.690,93.970 C63.815,93.544 63.878,92.304 63.878,90.248 L63.878,75.435 C63.878,72.628 63.464,70.610 62.637,69.381 C61.534,67.778 59.992,66.975 58.012,66.975 C56.659,66.975 55.318,67.339 53.989,68.065 C51.909,69.169 50.305,70.409 49.177,71.788 L49.177,90.248 C49.177,92.504 49.333,93.970 49.647,94.647 C49.960,95.324 50.423,95.831 51.038,96.170 C51.652,96.508 52.899,96.677 54.779,96.677 L54.779,98.031 L37.747,98.031 L37.747,96.677 C39.326,96.677 40.429,96.508 41.056,96.170 C41.682,95.831 42.158,95.293 42.484,94.553 C42.810,93.814 42.973,92.379 42.973,90.248 L42.973,77.089 C42.973,73.304 42.860,70.861 42.635,69.757 C42.459,68.930 42.184,68.360 41.808,68.047 C41.432,67.733 40.918,67.577 40.266,67.577 C39.564,67.577 38.725,67.765 37.747,68.141 L37.183,66.787 L47.560,62.576 L49.177,62.576 L49.177,69.908 C51.683,67.402 53.162,65.960 53.613,65.584 C54.741,64.632 55.957,63.892 57.260,63.366 C58.563,62.839 59.855,62.576 61.133,62.576 C63.288,62.576 65.143,63.203 66.697,64.456 C68.251,65.710 69.292,67.527 69.818,69.908 C72.399,66.900 74.580,64.926 76.360,63.986 C78.139,63.046 79.969,62.576 81.849,62.576 C83.679,62.576 85.302,63.046 86.718,63.986 C88.134,64.926 89.256,66.462 90.083,68.592 C90.634,70.046 90.910,72.327 90.910,75.435 L90.910,90.248 C90.910,92.404 91.073,93.883 91.399,94.685 C91.649,95.236 92.113,95.706 92.790,96.094 C93.467,96.483 94.570,96.677 96.099,96.677 L96.099,98.031 L79.105,98.031 L79.105,96.677 ZM9.105,178.677 L9.819,178.677 C11.298,178.677 12.451,178.389 13.278,177.812 C13.854,177.412 14.268,176.773 14.519,175.895 C14.619,175.469 14.669,174.254 14.669,172.248 L14.669,157.435 C14.669,154.628 14.331,152.647 13.654,151.494 C12.676,149.890 11.110,149.088 8.954,149.088 C7.625,149.088 6.291,149.420 4.950,150.084 C3.609,150.749 1.986,151.983 0.081,153.788 L0.006,154.201 L0.081,155.818 L0.081,172.248 C0.081,174.604 0.213,176.071 0.476,176.647 C0.739,177.224 1.234,177.706 1.961,178.094 C2.688,178.483 3.928,178.677 5.683,178.677 L5.683,180.031 L-11.725,180.031 L-11.725,178.677 C-9.820,178.677 -8.510,178.452 -7.796,178.000 C-7.081,177.549 -6.587,176.873 -6.310,175.970 C-6.185,175.544 -6.122,174.304 -6.122,172.248 L-6.122,157.435 C-6.122,154.628 -6.536,152.610 -7.363,151.381 C-8.466,149.778 -10.008,148.975 -11.988,148.975 C-13.341,148.975 -14.682,149.339 -16.011,150.065 C-18.091,151.169 -19.695,152.409 -20.823,153.788 L-20.823,172.248 C-20.823,174.504 -20.667,175.970 -20.353,176.647 C-20.040,177.324 -19.577,177.831 -18.962,178.170 C-18.348,178.508 -17.101,178.677 -15.221,178.677 L-15.221,180.031 L-32.253,180.031 L-32.253,178.677 C-30.674,178.677 -29.571,178.508 -28.944,178.170 C-28.318,177.831 -27.842,177.293 -27.516,176.553 C-27.190,175.814 -27.027,174.379 -27.027,172.248 L-27.027,159.089 C-27.027,155.304 -27.140,152.861 -27.365,151.757 C-27.541,150.930 -27.816,150.360 -28.192,150.047 C-28.568,149.733 -29.082,149.577 -29.734,149.577 C-30.436,149.577 -31.275,149.765 -32.253,150.141 L-32.817,148.787 L-22.440,144.576 L-20.823,144.576 L-20.823,151.908 C-18.317,149.402 -16.838,147.960 -16.387,147.584 C-15.259,146.632 -14.043,145.892 -12.740,145.366 C-11.437,144.839 -10.145,144.576 -8.867,144.576 C-6.712,144.576 -4.857,145.203 -3.303,146.456 C-1.749,147.710 -0.708,149.527 -0.182,151.908 C2.399,148.900 4.580,146.926 6.360,145.986 C8.139,145.046 9.969,144.576 11.849,144.576 C13.679,144.576 15.302,145.046 16.718,145.986 C18.134,146.926 19.256,148.462 20.083,150.592 C20.634,152.046 20.910,154.327 20.910,157.435 L20.910,172.248 C20.910,174.404 21.073,175.883 21.399,176.685 C21.649,177.236 22.113,177.706 22.790,178.094 C23.467,178.483 24.570,178.677 26.099,178.677 L26.099,180.031 L9.105,180.031 L9.105,178.677 ZM9.105,13.677 L9.819,13.677 C11.298,13.677 12.451,13.389 13.278,12.812 C13.854,12.412 14.268,11.773 14.519,10.895 C14.619,10.469 14.669,9.254 14.669,7.248 L14.669,-7.565 C14.669,-10.372 14.331,-12.353 13.654,-13.506 C12.676,-15.110 11.110,-15.912 8.954,-15.912 C7.625,-15.912 6.291,-15.580 4.950,-14.916 C3.609,-14.251 1.986,-13.017 0.081,-11.212 L0.006,-10.799 L0.081,-9.182 L0.081,7.248 C0.081,9.604 0.213,11.071 0.476,11.647 C0.739,12.224 1.234,12.706 1.961,13.094 C2.688,13.483 3.928,13.677 5.683,13.677 L5.683,15.031 L-11.725,15.031 L-11.725,13.677 C-9.820,13.677 -8.510,13.452 -7.796,13.000 C-7.081,12.549 -6.587,11.873 -6.310,10.970 C-6.185,10.544 -6.122,9.304 -6.122,7.248 L-6.122,-7.565 C-6.122,-10.372 -6.536,-12.390 -7.363,-13.619 C-8.466,-15.222 -10.008,-16.025 -11.988,-16.025 C-13.341,-16.025 -14.682,-15.661 -16.011,-14.935 C-18.091,-13.831 -19.695,-12.591 -20.823,-11.212 L-20.823,7.248 C-20.823,9.504 -20.667,10.970 -20.353,11.647 C-20.040,12.324 -19.577,12.831 -18.962,13.170 C-18.348,13.508 -17.101,13.677 -15.221,13.677 L-15.221,15.031 L-32.253,15.031 L-32.253,13.677 C-30.674,13.677 -29.571,13.508 -28.944,13.170 C-28.318,12.831 -27.842,12.293 -27.516,11.553 C-27.190,10.814 -27.027,9.379 -27.027,7.248 L-27.027,-5.911 C-27.027,-9.696 -27.140,-12.139 -27.365,-13.243 C-27.541,-14.070 -27.816,-14.640 -28.192,-14.953 C-28.568,-15.267 -29.082,-15.423 -29.734,-15.423 C-30.436,-15.423 -31.275,-15.235 -32.253,-14.859 L-32.817,-16.213 L-22.440,-20.424 L-20.823,-20.424 L-20.823,-13.092 C-18.317,-15.598 -16.838,-17.040 -16.387,-17.416 C-15.259,-18.368 -14.043,-19.108 -12.740,-19.634 C-11.437,-20.161 -10.145,-20.424 -8.867,-20.424 C-6.712,-20.424 -4.857,-19.797 -3.303,-18.544 C-1.749,-17.290 -0.708,-15.473 -0.182,-13.092 C2.399,-16.100 4.580,-18.074 6.360,-19.014 C8.139,-19.954 9.969,-20.424 11.849,-20.424 C13.679,-20.424 15.302,-19.954 16.718,-19.014 C18.134,-18.074 19.256,-16.538 20.083,-14.408 C20.634,-12.954 20.910,-10.673 20.910,-7.565 L20.910,7.248 C20.910,9.404 21.073,10.883 21.399,11.685 C21.649,12.236 22.113,12.706 22.790,13.094 C23.467,13.483 24.570,13.677 26.099,13.677 L26.099,15.031 L9.105,15.031 L9.105,13.677 Z"
     class="cls-1"
     id="path8"
     style="fill:#003c56;fill-opacity:1" />
</svg>
