<svg xmlns="http://www.w3.org/2000/svg" viewBox="0 0 486.392 486.392"><path d="M243.196 0C108.89 0 0 108.89 0 243.196s108.89 243.196 243.196 243.196 243.196-108.89 243.196-243.196C486.392 108.86 377.502 0 243.196 0zm-60.8 360.994H121.6V148.197h60.8v212.797zm-28.514-225.838c-15.747 0-28.484-12.768-28.484-28.515s12.768-28.514 28.484-28.514c15.747.03 28.515 12.798 28.515 28.515 0 15.748-12.768 28.516-28.515 28.516zm241.31 225.838h-60.798v-131.57c0-15.412-4.408-26.203-23.347-26.203-31.403 0-37.452 26.205-37.452 26.205v131.57h-60.8V148.196h60.8v20.337c8.694-6.657 30.4-20.307 60.8-20.307 19.698 0 60.798 11.795 60.798 83.05v129.717z" fill="#010002"/></svg>