<svg xmlns="http://www.w3.org/2000/svg" preserveAspectRatio="xMidYMid" width="141" height="160" viewBox="0 0 141 160" id="svg2"><defs id="defs4"><style id="style6">.cls-1{fill:#000;fill-rule:evenodd}</style></defs><path id="rect3000" fill="#00435e" stroke="#fff" stroke-width="2.23" d="M-65.87-55.295l273.666.99-.91 251.295L-66.78 196z"/><path d="M150.105 180.03v-1.353h.714c1.478 0 2.63-.288 3.458-.865.576-.4.99-1.04 1.24-1.917.1-.426.15-1.64.15-3.647v-14.813c0-2.807-.337-4.788-1.014-5.94-.978-1.605-2.544-2.407-4.7-2.407-1.33 0-2.663.332-4.004.996-1.34.665-2.964 1.9-4.87 3.704l-.074.413.075 1.618v16.43c0 2.356.133 3.823.396 4.4.263.576.758 1.058 1.485 1.446.728.39 1.968.583 3.723.583v1.354h-17.408v-1.353c1.905 0 3.215-.225 3.93-.677.714-.45 1.208-1.127 1.485-2.03.125-.426.188-1.666.188-3.722v-14.813c0-2.807-.414-4.825-1.24-6.054-1.104-1.602-2.646-2.405-4.626-2.405-1.353 0-2.694.364-4.023 1.09-2.08 1.104-3.685 2.344-4.813 3.723v18.46c0 2.256.156 3.722.47 4.4.313.676.776 1.183 1.39 1.522.615.338 1.862.507 3.742.507v1.354h-17.033v-1.353c1.58 0 2.682-.17 3.31-.507.625-.34 1.1-.877 1.427-1.617.326-.74.49-2.174.49-4.305v-13.16c0-3.784-.114-6.227-.34-7.33-.175-.828-.45-1.398-.826-1.71-.376-.315-.89-.47-1.542-.47-.702 0-1.54.187-2.52.563l-.563-1.353 10.377-4.21h1.617v7.33c2.506-2.505 3.985-3.947 4.436-4.323a13.434 13.434 0 0 1 3.647-2.218c1.303-.527 2.595-.79 3.873-.79 2.155 0 4.01.627 5.564 1.88 1.554 1.254 2.595 3.07 3.12 5.452 2.582-3.008 4.763-4.982 6.543-5.922 1.78-.94 3.61-1.41 5.49-1.41 1.83 0 3.452.47 4.868 1.41 1.416.94 2.538 2.476 3.365 4.606.55 1.454.827 3.735.827 6.843v14.813c0 2.156.163 3.635.49 4.437.25.55.713 1.02 1.39 1.41.677.388 1.78.582 3.31.582v1.354h-16.995zm0-166.353h.714c1.478 0 2.63-.288 3.458-.865.576-.4.99-1.04 1.24-1.917.1-.426.15-1.64.15-3.647V-7.565c0-2.807-.337-4.788-1.014-5.94-.978-1.605-2.544-2.407-4.7-2.407-1.33 0-2.663.332-4.004.996-1.34.665-2.964 1.9-4.87 3.704l-.074.413.075 1.618v16.43c0 2.356.133 3.823.396 4.4.263.576.758 1.058 1.485 1.446.728.39 1.968.583 3.723.583v1.354h-17.408v-1.353c1.905 0 3.215-.225 3.93-.677.714-.45 1.208-1.127 1.485-2.03.125-.426.188-1.666.188-3.722V-7.565c0-2.807-.414-4.825-1.24-6.054-1.104-1.602-2.646-2.405-4.626-2.405-1.353 0-2.694.364-4.023 1.09-2.08 1.104-3.685 2.344-4.813 3.723v18.46c0 2.256.156 3.722.47 4.4.313.676.776 1.183 1.39 1.522.615.338 1.862.507 3.742.507v1.354h-17.033v-1.353c1.58 0 2.682-.17 3.31-.507.625-.34 1.1-.877 1.427-1.617.326-.74.49-2.174.49-4.305v-13.16c0-3.784-.114-6.227-.34-7.33-.175-.828-.45-1.398-.826-1.71-.376-.315-.89-.47-1.542-.47-.702 0-1.54.187-2.52.563l-.563-1.353 10.377-4.21h1.617v7.33c2.506-2.505 3.985-3.947 4.436-4.323a13.434 13.434 0 0 1 3.647-2.218c1.303-.527 2.595-.79 3.873-.79 2.155 0 4.01.627 5.564 1.88 1.554 1.254 2.595 3.07 3.12 5.452 2.582-3.008 4.763-4.982 6.543-5.922 1.78-.94 3.61-1.41 5.49-1.41 1.83 0 3.452.47 4.868 1.41 1.416.94 2.538 2.476 3.365 4.606.55 1.454.827 3.735.827 6.843V7.248c0 2.156.163 3.635.49 4.437.25.55.713 1.02 1.39 1.41.677.388 1.78.582 3.31.582v1.354h-16.995v-1.353zm-71 83h.714c1.478 0 2.63-.288 3.458-.865.576-.4.99-1.04 1.24-1.917.1-.426.15-1.64.15-3.647V75.435c0-2.807-.337-4.788-1.014-5.94-.978-1.605-2.544-2.407-4.7-2.407-1.33 0-2.663.332-4.004.996-1.34.665-2.964 1.9-4.87 3.704l-.074.413.075 1.618v16.43c0 2.356.133 3.823.396 4.4.263.576.758 1.058 1.485 1.446.728.39 1.968.583 3.723.583v1.354H58.275v-1.353c1.905 0 3.215-.225 3.93-.677.714-.45 1.208-1.127 1.485-2.03.125-.426.188-1.666.188-3.722V75.435c0-2.807-.414-4.825-1.24-6.054-1.104-1.602-2.646-2.405-4.626-2.405-1.353 0-2.694.364-4.023 1.09-2.08 1.104-3.685 2.344-4.813 3.723v18.46c0 2.256.156 3.722.47 4.4.313.676.776 1.183 1.39 1.522.615.338 1.862.507 3.742.507v1.354H37.746v-1.353c1.58 0 2.682-.17 3.31-.507.625-.34 1.1-.877 1.427-1.617.326-.74.49-2.174.49-4.305v-13.16c0-3.784-.114-6.227-.34-7.33-.175-.828-.45-1.398-.826-1.71-.376-.315-.89-.47-1.542-.47-.702 0-1.54.187-2.52.563l-.563-1.353 10.377-4.21h1.617v7.33c2.506-2.505 3.985-3.947 4.436-4.323a13.434 13.434 0 0 1 3.647-2.218c1.303-.527 2.595-.79 3.873-.79 2.155 0 4.01.627 5.564 1.88 1.554 1.254 2.595 3.07 3.12 5.452 2.582-3.008 4.763-4.982 6.543-5.922 1.78-.94 3.61-1.41 5.49-1.41 1.83 0 3.452.47 4.868 1.41 1.416.94 2.538 2.476 3.365 4.606.55 1.454.827 3.735.827 6.843v14.813c0 2.156.163 3.635.49 4.437.25.55.713 1.02 1.39 1.41.677.388 1.78.582 3.31.582v1.354H79.104v-1.353zm-70 82h.714c1.478 0 2.63-.288 3.458-.865.576-.4.99-1.04 1.24-1.917.1-.426.15-1.64.15-3.647v-14.813c0-2.807-.337-4.788-1.014-5.94-.978-1.605-2.544-2.407-4.7-2.407-1.33 0-2.663.332-4.004.996-1.34.665-2.964 1.9-4.87 3.704l-.074.413.075 1.618v16.43c0 2.356.133 3.823.396 4.4.263.576.758 1.058 1.485 1.446.728.39 1.968.583 3.723.583v1.354h-17.408v-1.353c1.905 0 3.215-.225 3.93-.677.714-.45 1.208-1.127 1.485-2.03.125-.426.188-1.666.188-3.722v-14.813c0-2.807-.414-4.825-1.24-6.054-1.104-1.602-2.646-2.405-4.626-2.405-1.353 0-2.694.364-4.023 1.09-2.08 1.104-3.685 2.344-4.813 3.723v18.46c0 2.256.156 3.722.47 4.4.313.676.776 1.183 1.39 1.522.615.338 1.862.507 3.742.507v1.354h-17.033v-1.353c1.58 0 2.682-.17 3.31-.507.625-.34 1.1-.877 1.427-1.617.326-.74.49-2.174.49-4.305v-13.16c0-3.784-.114-6.227-.34-7.33-.175-.828-.45-1.398-.826-1.71-.376-.315-.89-.47-1.542-.47-.702 0-1.54.187-2.52.563l-.563-1.353 10.377-4.21h1.617v7.33c2.506-2.505 3.985-3.947 4.436-4.323a13.434 13.434 0 0 1 3.647-2.218c1.303-.527 2.595-.79 3.873-.79 2.155 0 4.01.627 5.564 1.88 1.554 1.254 2.595 3.07 3.12 5.452 2.582-3.008 4.763-4.982 6.543-5.922 1.78-.94 3.61-1.41 5.49-1.41 1.83 0 3.452.47 4.868 1.41 1.416.94 2.538 2.476 3.365 4.606.55 1.454.827 3.735.827 6.843v14.813c0 2.156.163 3.635.49 4.437.25.55.713 1.02 1.39 1.41.677.388 1.78.582 3.31.582v1.354H9.104v-1.353zm0-165h.714c1.478 0 2.63-.288 3.458-.865.576-.4.99-1.04 1.24-1.917.1-.426.15-1.64.15-3.647V-7.565c0-2.807-.337-4.788-1.014-5.94-.978-1.605-2.544-2.407-4.7-2.407-1.33 0-2.663.332-4.004.996-1.34.665-2.964 1.9-4.87 3.704l-.074.413L.08-9.18v16.43c0 2.356.133 3.823.396 4.4.263.576.758 1.058 1.485 1.446.728.39 1.968.583 3.723.583v1.354h-17.408v-1.353c1.905 0 3.215-.225 3.93-.677.714-.45 1.208-1.127 1.485-2.03.125-.426.188-1.666.188-3.722V-7.565c0-2.807-.414-4.825-1.24-6.054-1.104-1.602-2.646-2.405-4.626-2.405-1.353 0-2.694.364-4.023 1.09-2.08 1.104-3.685 2.344-4.813 3.723v18.46c0 2.256.156 3.722.47 4.4.313.676.776 1.183 1.39 1.522.615.338 1.862.507 3.742.507v1.354h-17.033v-1.353c1.58 0 2.682-.17 3.31-.507.625-.34 1.1-.877 1.427-1.617.326-.74.49-2.174.49-4.305v-13.16c0-3.784-.114-6.227-.34-7.33-.175-.828-.45-1.398-.826-1.71-.376-.315-.89-.47-1.542-.47-.702 0-1.54.187-2.52.563l-.563-1.353 10.377-4.21h1.617v7.33c2.506-2.505 3.985-3.947 4.436-4.323a13.434 13.434 0 0 1 3.647-2.218c1.303-.527 2.595-.79 3.873-.79 2.155 0 4.01.627 5.564 1.88 1.554 1.254 2.595 3.07 3.12 5.452C2.4-16.1 4.58-18.074 6.36-19.014c1.78-.94 3.61-1.41 5.49-1.41 1.83 0 3.452.47 4.868 1.41 1.416.94 2.538 2.476 3.365 4.606.55 1.454.827 3.735.827 6.843V7.248c0 2.156.163 3.635.49 4.437.25.55.713 1.02 1.39 1.41.677.388 1.78.582 3.31.582v1.354H9.104v-1.353z" class="cls-1" id="path8" fill="#003c56"/></svg>