<svg xmlns="http://www.w3.org/2000/svg" width="485.213" height="485.212" viewBox="0 0 485.213 485.212"><path d="M242.607 0C108.63 0 0 108.628 0 242.606c0 133.976 108.63 242.606 242.607 242.606 133.978 0 242.604-108.63 242.604-242.606C485.213 108.628 376.586 0 242.608 0zM370.72 353.99l-19.426 19.428c-3.468 3.463-13.623 5.624-13.95 5.624-61.45.536-120.62-23.602-164.094-67.08-43.593-43.618-67.76-102.998-67.11-164.657 0-.028 2.224-9.892 5.69-13.324l19.423-19.426c7.108-7.14 20.762-10.368 30.327-7.168l4.086 1.363c9.537 3.196 19.55 13.74 22.185 23.456l9.772 35.862c2.635 9.743-.92 23.604-8.025 30.712l-12.97 12.972c12.734 47.142 49.723 84.138 96.873 96.903l12.965-12.975c7.14-7.14 20.997-10.692 30.72-8.06l35.856 9.805c9.718 2.67 20.26 12.62 23.457 22.154l1.363 4.144c3.168 9.538-.034 23.19-7.14 30.265z"/></svg>